<?xml version="1.0" encoding="UTF-8" standalone="no"?><!DOCTYPE svg PUBLIC "-//W3C//DTD SVG 1.1//EN" "http://www.w3.org/Graphics/SVG/1.1/DTD/svg11.dtd"><svg width="100%" height="100%" viewBox="0 0 24804 18898" version="1.1" xmlns="http://www.w3.org/2000/svg" xmlns:xlink="http://www.w3.org/1999/xlink" xml:space="preserve" xmlns:serif="http://www.serif.com/" style="fill-rule:evenodd;clip-rule:evenodd;stroke-linejoin:round;stroke-miterlimit:2;"><rect id="ArtboardD" x="0" y="0" width="24803.2" height="18897.6" style="fill:none;"/><g><path d="M3968.5,5196.85l1889.76,0l-0,472.441l-1417.32,0l-0,236.221l1417.32,-0l-0,472.441l-1417.32,-0l-0,708.661l-472.441,0l-0,-1889.76Z"/><path d="M6803.15,6614.17l1039.37,0l-0,472.441l-1511.81,0l-0,-1889.76l472.441,0l-0,1417.32Z"/><path d="M9118.11,5102.36c573.644,0 1039.37,465.726 1039.37,1039.37c0,573.644 -465.726,1039.37 -1039.37,1039.37c-573.644,0 -1039.37,-465.726 -1039.37,-1039.37c0,-573.644 465.726,-1039.37 1039.37,-1039.37Zm0,472.441c312.897,0 566.929,254.033 566.929,566.929c0,312.897 -254.032,566.929 -566.929,566.929c-312.896,0 -566.929,-254.032 -566.929,-566.929c0,-312.896 254.033,-566.929 566.929,-566.929Z"/><path d="M11338.6,5196.85l-0,472.441c-260.748,0 -472.441,211.694 -472.441,472.441c-0,260.748 211.693,472.441 472.441,472.441l-0,472.441c-521.495,0 -944.882,-423.387 -944.882,-944.882c-0,-521.494 423.387,-944.882 944.882,-944.882l-0,0Zm944.882,944.882c-0,0 -0,0 -0,0Z"/><path d="M13464.6,5196.85l-0,472.441c-260.747,0 -472.441,211.694 -472.441,472.441c-0,260.748 211.694,472.441 472.441,472.441l-0,472.441c-521.495,0 -944.882,-423.387 -944.882,-944.882c0,-521.494 423.387,-944.882 944.882,-944.882l-0,0Zm944.882,944.882c-0,0 -0,0 -0,0Z"/><path d="M15685,5102.36c573.644,0 1039.37,465.726 1039.37,1039.37c0,573.644 -465.726,1039.37 -1039.37,1039.37c-573.644,0 -1039.37,-465.726 -1039.37,-1039.37c0,-573.644 465.726,-1039.37 1039.37,-1039.37Zm0,472.441c312.897,0 566.93,254.033 566.93,566.929c-0,312.897 -254.033,566.929 -566.93,566.929c-312.896,0 -566.929,-254.032 -566.929,-566.929c0,-312.896 254.033,-566.929 566.929,-566.929Z"/><path d="M21496.1,5196.85l-0,472.441l-1511.81,0l-0,236.221l1511.81,-0l-0,472.441l-1511.81,-0l-0,236.22l1511.81,0l-0,472.441l-1984.25,0l0,-1889.76l1984.25,0Z"/><path d="M18661.4,6496.06c0,-65.231 -52.879,-118.11 -118.11,-118.11c-203.258,-0 -632.068,-0 -992.126,-0c-156.624,-0 -306.833,-62.219 -417.583,-172.969c-110.749,-110.749 -172.968,-260.958 -172.968,-417.582c-0,-0 -0,-0 -0,-0.001c-0,-156.623 62.218,-306.832 172.968,-417.582c110.75,-110.75 260.959,-172.969 417.583,-172.969c614.544,0 1488.19,0 1488.19,0l0,472.441c0,0 -1117.24,0 -1488.19,0c-31.325,0 -61.367,12.444 -83.517,34.594c-22.149,22.15 -34.593,52.192 -34.593,83.516c-0,0 -0,0.001 -0,0.001c-0,65.23 52.88,118.11 118.11,118.11c203.258,-0 632.068,-0 992.126,-0c156.624,-0 306.833,62.218 417.583,172.968c110.75,110.75 172.968,260.959 172.968,417.583l0,0c0,326.152 -264.398,590.551 -590.551,590.551c-614.544,0 -1488.19,0 -1488.19,0l0,-472.441c0,0 1117.24,0 1488.19,0c31.325,0 61.367,-12.443 83.517,-34.593c22.15,-22.15 34.593,-52.192 34.593,-83.517c0,0 0,-0 0,-0Z"/><rect x="14881.9" y="4157.48" width="1606.3" height="472.441"/><rect x="11338.6" y="5196.85" width="944.882" height="472.441"/><rect x="13464.6" y="5196.85" width="944.882" height="472.441"/><rect x="11338.6" y="6614.17" width="472.441" height="472.441"/><rect x="13464.6" y="6614.17" width="472.441" height="472.441"/></g></svg>