<?xml version="1.0" encoding="UTF-8" standalone="no"?><!DOCTYPE svg PUBLIC "-//W3C//DTD SVG 1.1//EN" "http://www.w3.org/Graphics/SVG/1.1/DTD/svg11.dtd"><svg width="100%" height="100%" viewBox="0 0 17528 3024" version="1.1" xmlns="http://www.w3.org/2000/svg" xmlns:xlink="http://www.w3.org/1999/xlink" xml:space="preserve" xmlns:serif="http://www.serif.com/" style="fill-rule:evenodd;clip-rule:evenodd;stroke-linejoin:round;stroke-miterlimit:2;"><path d="M11716.5,944.882c573.644,-0 1039.37,465.726 1039.37,1039.37c-0,573.644 -465.727,1039.37 -1039.37,1039.37c-573.644,0 -1039.37,-465.726 -1039.37,-1039.37c0,-573.644 465.726,-1039.37 1039.37,-1039.37Zm-6566.93,-0c573.644,-0 1039.37,465.726 1039.37,1039.37c0,573.644 -465.726,1039.37 -1039.37,1039.37c-573.644,0 -1039.37,-465.726 -1039.37,-1039.37c0,-573.644 465.726,-1039.37 1039.37,-1039.37Zm-5149.61,188.976c-0,-25.06 9.955,-49.093 27.675,-66.813c17.72,-17.72 41.753,-27.675 66.813,-27.675c322.584,0 1378.2,0 1700.79,0c25.059,0 49.093,9.955 66.813,27.675c17.72,17.72 27.675,41.753 27.675,66.813c-0,82.338 -0,201.127 -0,283.465c-0,52.184 -42.304,94.488 -94.488,94.488c-275.8,0 -1073.03,0 -1275.59,0c-12.53,0 -24.547,4.978 -33.407,13.837c-8.86,8.86 -13.837,20.877 -13.837,33.407c-0,41.169 -0,100.564 -0,141.732c-0,12.53 4.977,24.547 13.837,33.407c8.86,8.86 20.877,13.837 33.407,13.837c202.557,0 999.791,0 1275.59,0c52.184,0.001 94.488,42.304 94.488,94.489c-0,82.337 -0,201.127 -0,283.464c-0,52.185 -42.304,94.488 -94.488,94.488c-275.8,0 -1073.03,0 -1275.59,0c-12.53,0 -24.547,4.978 -33.407,13.838c-8.86,8.86 -13.837,20.877 -13.837,33.407c-0,115.407 -0,413.419 -0,566.929c-0,52.184 -42.304,94.488 -94.488,94.488c-82.338,-0 -201.127,-0 -283.465,-0c-25.06,-0 -49.093,-9.955 -66.813,-27.675c-17.72,-17.72 -27.675,-41.754 -27.675,-66.813c-0,-322.584 -0,-1378.2 -0,-1700.79Zm2834.65,1275.59c-0,26.092 21.152,47.244 47.244,47.244c159.78,-0 681.972,-0 897.638,-0c52.184,-0 94.488,42.304 94.488,94.488c-0,82.338 -0,201.127 -0,283.465c-0,25.059 -9.955,49.093 -27.675,66.813c-17.72,17.72 -41.754,27.675 -66.813,27.675c-271.441,-0 -1051.39,-0 -1322.84,-0c-25.06,-0 -49.093,-9.955 -66.813,-27.675c-17.72,-17.72 -27.675,-41.754 -27.675,-66.813c-0,-322.584 -0,-1378.2 -0,-1700.79c-0,-25.06 9.955,-49.093 27.675,-66.813c17.72,-17.72 41.753,-27.675 66.813,-27.675c82.338,0 201.127,0 283.464,0c52.185,0 94.489,42.304 94.489,94.488c-0,275.799 -0,1073.03 -0,1275.59Zm4535.43,-1370.08l850.393,0c25.06,0 49.094,9.955 66.814,27.675c17.72,17.72 27.675,41.753 27.675,66.813c-0,82.338 -0,201.127 -0,283.465c-0,25.06 -9.955,49.093 -27.675,66.813c-17.72,17.72 -41.754,27.675 -66.814,27.675c-239.303,0 -850.393,0 -850.393,0c-260.748,0 -472.441,211.694 -472.441,472.441c-0,260.747 211.693,472.441 472.441,472.441c-0,-0 240.079,-0 377.952,-0c25.06,-0 49.094,9.955 66.814,27.675c17.72,17.72 27.675,41.753 27.675,66.813l-0,283.465c-0,25.059 -9.955,49.093 -27.675,66.813c-17.72,17.72 -41.754,27.675 -66.814,27.675c-137.873,-0 -377.952,-0 -377.952,-0c-521.495,-0 -944.882,-423.388 -944.882,-944.882c-0,-521.495 423.387,-944.882 944.882,-944.882Zm2125.98,0l850.394,0c25.06,0 49.093,9.955 66.813,27.675c17.72,17.72 27.675,41.753 27.675,66.813c-0,82.338 -0,201.127 -0,283.465c-0,25.06 -9.955,49.093 -27.675,66.813c-17.72,17.72 -41.753,27.675 -66.813,27.675c-239.303,0 -850.394,0 -850.394,0c-260.747,0 -472.441,211.694 -472.441,472.441c0,260.747 211.694,472.441 472.441,472.441c-0,-0 240.08,-0 377.953,-0c25.06,-0 49.093,9.955 66.813,27.675c17.72,17.72 27.675,41.753 27.675,66.813c-0,82.338 -0,201.127 -0,283.465c-0,25.059 -9.955,49.093 -27.675,66.813c-17.72,17.72 -41.753,27.675 -66.813,27.675c-137.873,-0 -377.953,-0 -377.953,-0c-521.495,-0 -944.882,-423.388 -944.882,-944.882c0,-521.495 423.387,-944.882 944.882,-944.882Zm5196.85,1299.21c0,-65.23 -52.879,-118.11 -118.11,-118.11c-203.258,0 -632.068,0 -992.126,0c-156.624,0 -306.833,-62.218 -417.583,-172.968c-110.749,-110.75 -172.968,-260.959 -172.968,-417.583l-0,0c-0,-156.624 62.219,-306.833 172.968,-417.583c110.75,-110.749 260.959,-172.968 417.583,-172.968c492.505,0 1151.42,0 1393.7,0c25.06,0 49.093,9.955 66.813,27.675c17.72,17.72 27.675,41.753 27.675,66.813c0,82.338 0,201.127 0,283.465c0,25.06 -9.955,49.093 -27.675,66.813c-17.72,17.72 -41.753,27.675 -66.813,27.675c-277.275,0 -1088.34,0 -1393.7,0c-31.325,0 -61.367,12.444 -83.516,34.594c-22.15,22.15 -34.594,52.191 -34.594,83.516c-0,0 -0,0 -0,0c-0,65.231 52.88,118.11 118.11,118.11c203.258,0 632.068,0 992.126,0c156.624,0 306.833,62.219 417.583,172.969c110.75,110.75 172.968,260.959 172.968,417.582l0,0.001c0,326.152 -264.398,590.551 -590.551,590.551c-492.505,-0 -1151.42,-0 -1393.7,-0c-25.059,-0 -49.093,-9.955 -66.813,-27.675c-17.72,-17.72 -27.675,-41.754 -27.675,-66.813l0,-283.465c0,-25.06 9.955,-49.093 27.675,-66.813c17.72,-17.72 41.754,-27.675 66.813,-27.675c277.276,-0 1088.34,-0 1393.7,-0c31.325,-0 61.367,-12.444 83.517,-34.594c22.15,-22.15 34.593,-52.191 34.593,-83.516l0,-0.001Zm2740.16,-1299.21c25.06,0 49.093,9.955 66.813,27.675c17.72,17.72 27.675,41.753 27.675,66.813l0,283.465c0,25.06 -9.955,49.093 -27.675,66.813c-17.72,17.72 -41.753,27.675 -66.813,27.675c-289.554,0 -1157.75,0 -1370.08,0c-12.53,0 -24.547,4.978 -33.406,13.837c-8.86,8.86 -13.838,20.877 -13.838,33.407l0,141.732c0,12.53 4.978,24.547 13.838,33.407c8.859,8.86 20.876,13.837 33.406,13.837c212.329,0 1080.53,0 1370.08,0c25.06,0 49.093,9.955 66.813,27.675c17.72,17.72 27.675,41.754 27.675,66.814c0,82.337 0,201.127 0,283.464c0,25.06 -9.955,49.094 -27.675,66.813c-17.72,17.72 -41.753,27.675 -66.813,27.675c-289.554,0 -1157.75,0 -1370.08,0c-12.53,0 -24.547,4.978 -33.406,13.838c-8.86,8.86 -13.838,20.877 -13.838,33.407l0,141.732c0,12.53 4.978,24.546 13.838,33.406c8.859,8.86 20.876,13.838 33.406,13.838c212.329,-0 1080.53,-0 1370.08,-0c25.06,-0 49.093,9.955 66.813,27.675c17.72,17.72 27.675,41.753 27.675,66.813c0,82.338 0,201.127 0,283.465c0,25.059 -9.955,49.093 -27.675,66.813c-17.72,17.72 -41.753,27.675 -66.813,27.675c-334.56,-0 -1460.72,-0 -1795.28,-0c-52.184,-0 -94.488,-42.304 -94.488,-94.488c0,-322.584 0,-1378.2 0,-1700.79c0,-52.184 42.304,-94.488 94.488,-94.488c334.56,0 1460.72,0 1795.28,0Zm-5716.54,377.953c312.897,-0 566.93,254.032 566.93,566.929c-0,312.897 -254.033,566.929 -566.93,566.929c-312.896,0 -566.929,-254.032 -566.929,-566.929c0,-312.897 254.033,-566.929 566.929,-566.929Zm-6566.93,-0c312.897,-0 566.929,254.032 566.929,566.929c0,312.897 -254.032,566.929 -566.929,566.929c-312.896,0 -566.929,-254.032 -566.929,-566.929c0,-312.897 254.033,-566.929 566.929,-566.929Zm7370.08,-1322.84c0,-25.06 -9.955,-49.093 -27.675,-66.813c-17.72,-17.72 -41.753,-27.675 -66.813,-27.675c-284.767,-0 -1132.56,-0 -1417.32,-0c-25.06,-0 -49.093,9.955 -66.813,27.675c-17.72,17.72 -27.675,41.753 -27.675,66.813c-0,82.338 -0,201.127 -0,283.465c-0,25.06 9.955,49.093 27.675,66.813c17.72,17.72 41.753,27.675 66.813,27.675c284.766,-0 1132.56,-0 1417.32,-0c25.06,-0 49.093,-9.955 66.813,-27.675c17.72,-17.72 27.675,-41.753 27.675,-66.813c0,-82.338 0,-201.127 0,-283.465Z"/></svg>