<?xml version="1.0" encoding="UTF-8" standalone="no"?>
<!DOCTYPE svg PUBLIC "-//W3C//DTD SVG 1.1//EN" "http://www.w3.org/Graphics/SVG/1.1/DTD/svg11.dtd">
<svg width="100%" height="100%" viewBox="0 0 16772 3780" version="1.1" xmlns="http://www.w3.org/2000/svg" xmlns:xlink="http://www.w3.org/1999/xlink" xml:space="preserve" xmlns:serif="http://www.serif.com/" style="fill-rule:evenodd;clip-rule:evenodd;stroke-linejoin:round;stroke-miterlimit:2;">
    <rect id="Artboard1" x="0" y="0" width="16771.7" height="3779.53" style="fill:none;"/>
    <clipPath id="_clip1">
        <rect id="Artboard11" serif:id="Artboard1" x="0" y="0" width="16771.7" height="3779.53"/>
    </clipPath>
    <g clip-path="url(#_clip1)">
        <g transform="matrix(2.04023,0,0,1.33333,-170608,-7559.06)">
            <rect x="83622" y="5669.29" width="8220.47" height="2834.65" style="fill:none;"/>
            <clipPath id="_clip2">
                <rect x="83622" y="5669.29" width="8220.47" height="2834.65"/>
            </clipPath>
            <g clip-path="url(#_clip2)">
                <g id="v5" transform="matrix(0.64331,0,0,1.5,80843.3,1771.65)">
                    <g transform="matrix(0.761905,0,0,0.5,-59392.6,0)">
                        <path d="M84094.5,6141.73L84094.5,8031.5L84566.9,8031.5L84566.9,7322.84L85984.3,7322.84L85984.3,6850.39L84566.9,6850.39L84566.9,6614.17L85984.3,6614.17L85984.3,6141.73L84094.5,6141.73Z"/>
                    </g>
                    <g transform="matrix(0.761905,0,0,0.5,-59392.6,0)">
                        <path d="M86220.5,8031.5L87637.8,8031.5L87637.8,7559.06L86692.9,7559.06L86692.9,6141.73L86220.5,6141.73L86220.5,8031.5Z"/>
                    </g>
                    <g transform="matrix(0.761905,0,0,0.5,-59392.6,0)">
                        <path d="M96378,7322.84C96052,7322.84 95787.4,7058.22 95787.4,6732.28C95787.4,6406.35 96052,6141.73 96378,6141.73C96378,6141.73 97677.2,6141.73 97677.2,6141.73L97677.2,6614.17L96378,6614.17C96312.8,6614.17 96259.8,6667.1 96259.8,6732.28C96259.8,6797.47 96312.8,6850.39 96378,6850.39L97204.7,6850.39C97530.7,6850.39 97795.3,7115.01 97795.3,7440.94C97795.3,7766.55 97531.2,8030.97 97205.7,8031.49L97204.7,8031.5L95905.5,8031.5L95905.5,7559.06L97204.7,7559.06C97269.9,7559.06 97322.8,7506.13 97322.8,7440.94C97322.8,7375.76 97269.9,7322.84 97204.7,7322.84C97204.7,7322.84 96378,7322.84 96378,7322.84Z"/>
                    </g>
                    <g transform="matrix(0.761905,0,0,0.5,-59302.6,0)">
                        <path d="M97913.4,6141.73L97913.4,8031.5L99803.2,8031.5L99803.2,7559.06L98385.8,7559.06L98385.8,7322.84L99803.2,7322.84L99803.2,6850.39L98385.8,6850.39L98385.8,6614.17L99803.2,6614.17L99803.2,6141.73L97913.4,6141.73Z"/>
                    </g>
                    <g transform="matrix(0.761905,-2.77556e-17,0,0.5,-59482.6,236.22)">
                        <path d="M95433.1,4724.41L94488.2,4724.41L94015.7,5196.85L94960.6,5196.85L95433.1,4724.41Z"/>
                    </g>
                    <g id="OCCO---Snapped---Curved" serif:id="OCCO - Snapped &amp; Curved" transform="matrix(0.707107,-0.464039,1.0775,0.707107,-37.4317,7886.17)">
                        <g transform="matrix(0.761905,0,5.55112e-17,0.5,-57592.8,-1771.65)">
                            <path d="M89291.3,5905.51C88769.8,5905.51 88346.5,5482.12 88346.5,4960.63C88346.5,4439.14 88769.8,4015.75 89291.3,4015.75C89812.8,4015.75 90236.2,4439.14 90236.2,4960.63C90236.2,5132.67 90190.1,5294.03 90109.6,5433.07L90708.7,5433.07L90708.7,5905.51L89291.3,5905.51ZM89291.3,4488.19C89552.1,4488.19 89763.8,4699.88 89763.8,4960.63C89763.8,5221.38 89552.1,5433.07 89291.3,5433.07C89030.6,5433.07 88818.9,5221.38 88818.9,4960.63C88818.9,4699.88 89030.6,4488.19 89291.3,4488.19Z"/>
                        </g>
                        <g transform="matrix(0.761905,0,5.55112e-17,0.5,-57592.8,-1771.65)">
                            <path d="M90708.7,6850.39C90708.7,6850.39 92126,6850.39 92126,6850.39L92126,7322.84L90708.7,7322.84C90187.2,7322.84 89763.8,6899.45 89763.8,6377.95C89763.8,5856.46 90187.2,5433.07 90708.7,5433.07C91230.2,5433.07 91653.5,5856.46 91653.5,6377.95L91181.1,6377.95C91181.1,6117.21 90969.4,5905.51 90708.7,5905.51C90447.9,5905.51 90236.2,6117.21 90236.2,6377.95C90236.2,6638.7 90447.9,6850.39 90708.7,6850.39Z"/>
                        </g>
                        <g transform="matrix(0.761905,0,5.55112e-17,0.5,-57592.8,-1771.65)">
                            <path d="M92126,8267.72C92126,8267.72 93543.3,8267.72 93543.3,8267.72L93543.3,8740.16L92126,8740.16C91604.5,8740.16 91181.1,8316.77 91181.1,7795.28C91181.1,7273.78 91604.5,6850.39 92126,6850.39C92647.5,6850.39 93070.9,7273.78 93070.9,7795.28L92598.4,7795.28C92598.4,7534.53 92386.7,7322.84 92126,7322.84C91865.2,7322.84 91653.5,7534.53 91653.5,7795.28C91653.5,8056.02 91865.2,8267.72 92126,8267.72Z"/>
                        </g>
                        <g transform="matrix(0.761905,0,5.55112e-17,0.5,-57592.8,-1771.65)">
                            <path d="M93543.3,8267.72C94064.8,8267.72 94488.2,8691.1 94488.2,9212.6C94488.2,9734.09 94064.8,10157.5 93543.3,10157.5C93021.8,10157.5 92598.4,9734.09 92598.4,9212.6C92598.4,8691.1 93021.8,8267.72 93543.3,8267.72ZM93543.3,8740.16C93804.1,8740.16 94015.7,8951.85 94015.7,9212.6C94015.7,9473.35 93804.1,9685.04 93543.3,9685.04C93282.6,9685.04 93070.9,9473.35 93070.9,9212.6C93070.9,8951.85 93282.6,8740.16 93543.3,8740.16Z"/>
                        </g>
                    </g>
                </g>
            </g>
        </g>
    </g>
</svg>
