<?xml version="1.0" encoding="UTF-8" standalone="no"?><!DOCTYPE svg PUBLIC "-//W3C//DTD SVG 1.1//EN" "http://www.w3.org/Graphics/SVG/1.1/DTD/svg11.dtd"><svg width="100%" height="100%" viewBox="0 0 17528 3024" version="1.1" xmlns="http://www.w3.org/2000/svg" xmlns:xlink="http://www.w3.org/1999/xlink" xml:space="preserve" xmlns:serif="http://www.serif.com/" style="fill-rule:evenodd;clip-rule:evenodd;stroke-linejoin:round;stroke-miterlimit:2;"><path d="M11716.5,944.882c573.644,-0 1039.37,465.726 1039.37,1039.37c-0,573.644 -465.727,1039.37 -1039.37,1039.37c-573.644,0 -1039.37,-465.726 -1039.37,-1039.37c0,-573.644 465.726,-1039.37 1039.37,-1039.37Zm-6566.93,-0c573.644,-0 1039.37,465.726 1039.37,1039.37c0,573.644 -465.726,1039.37 -1039.37,1039.37c-573.644,0 -1039.37,-465.726 -1039.37,-1039.37c0,-573.644 465.726,-1039.37 1039.37,-1039.37Zm-5149.61,141.732c-0,-12.53 4.977,-24.546 13.837,-33.406c8.86,-8.86 20.877,-13.838 33.407,-13.838c261.919,0 1533.36,0 1795.28,0c12.53,0 24.546,4.978 33.406,13.838c8.86,8.86 13.838,20.876 13.838,33.406c-0,90.52 -0,287.433 -0,377.953c-0,12.53 -4.978,24.547 -13.838,33.407c-8.86,8.86 -20.876,13.837 -33.406,13.837c-224.961,0 -1183.42,0 -1346.46,0c-13.046,0 -23.622,10.576 -23.622,23.622c-0,45.26 -0,143.717 -0,188.976c-0,13.047 10.576,23.622 23.622,23.622c163.039,0 1121.5,0 1346.46,0c12.53,0 24.546,4.978 33.406,13.838c8.86,8.86 13.838,20.877 13.838,33.407c-0,90.519 -0,287.433 -0,377.952c-0,12.53 -4.978,24.547 -13.838,33.407c-8.86,8.86 -20.876,13.837 -33.406,13.837c-224.961,0 -1183.42,0 -1346.46,0c-6.265,0 -12.273,2.489 -16.703,6.919c-4.43,4.43 -6.919,10.439 -6.919,16.703c-0,101.279 -0,499.896 -0,637.796c-0,12.53 -4.978,24.546 -13.838,33.406c-8.86,8.86 -20.876,13.838 -33.406,13.838c-90.52,-0 -287.433,-0 -377.953,-0c-12.53,-0 -24.547,-4.978 -33.407,-13.838c-8.86,-8.86 -13.837,-20.876 -13.837,-33.406c-0,-261.919 -0,-1533.36 -0,-1795.28Zm2834.65,1346.46c-0,6.265 2.488,12.273 6.918,16.703c4.43,4.43 10.439,6.919 16.704,6.919c132.737,-0 786.287,-0 968.504,-0c26.092,-0 47.244,21.152 47.244,47.244l-0,377.953c-0,12.53 -4.978,24.546 -13.838,33.406c-8.86,8.86 -20.876,13.838 -33.406,13.838c-225.612,-0 -1191.71,-0 -1417.32,-0c-12.53,-0 -24.547,-4.978 -33.407,-13.838c-8.86,-8.86 -13.837,-20.876 -13.837,-33.406c-0,-261.919 -0,-1533.36 -0,-1795.28c-0,-12.53 4.977,-24.546 13.837,-33.406c8.86,-8.86 20.877,-13.838 33.407,-13.838c90.52,0 287.433,0 377.953,0c12.529,0 24.546,4.978 33.406,13.838c8.86,8.86 13.838,20.876 13.838,33.406c-0,224.961 -0,1183.42 -0,1346.46Zm6661.42,-1393.7l944.882,0l-0,472.441l-944.882,0c-260.747,0 -472.441,211.694 -472.441,472.441c0,260.747 211.694,472.441 472.441,472.441c-0,-0 472.441,-0 472.441,-0l-0,472.441l-472.441,-0c-521.495,-0 -944.882,-423.388 -944.882,-944.882c0,-521.495 423.387,-944.882 944.882,-944.882Zm-2125.98,0c-0,0 706.411,0 897.638,0c26.092,0 47.244,21.152 47.244,47.244c-0,90.52 -0,287.433 -0,377.953c-0,26.092 -21.152,47.244 -47.244,47.244c-191.227,0 -897.638,0 -897.638,0c-260.748,0 -472.441,211.694 -472.441,472.441c-0,260.747 211.693,472.441 472.441,472.441c-0,-0 305.545,-0 425.197,-0c26.092,-0 47.244,21.152 47.244,47.244l-0,377.953c-0,26.092 -21.152,47.244 -47.244,47.244c-119.652,-0 -425.197,-0 -425.197,-0c-521.495,-0 -944.882,-423.388 -944.882,-944.882c-0,-521.495 423.387,-944.882 944.882,-944.882Zm7322.83,1299.21c0,-65.23 -52.879,-118.11 -118.11,-118.11c-203.258,0 -632.068,0 -992.126,0c-156.624,0 -306.833,-62.218 -417.583,-172.968c-110.749,-110.75 -172.968,-260.959 -172.968,-417.583l-0,0c-0,-156.624 62.219,-306.833 172.968,-417.583c110.75,-110.749 260.959,-172.968 417.583,-172.968c529.45,0 1251.21,0 1440.94,0c26.092,0 47.244,21.152 47.244,47.244c0,90.52 0,287.433 0,377.953c0,26.092 -21.152,47.244 -47.244,47.244c-216.316,0 -1115.62,0 -1440.94,0c-31.325,0 -61.367,12.444 -83.516,34.594c-22.15,22.15 -34.594,52.191 -34.594,83.516c-0,0 -0,0 -0,0c-0,65.231 52.88,118.11 118.11,118.11c203.258,0 632.068,0 992.126,0c156.624,0 306.833,62.219 417.583,172.969c110.75,110.75 172.968,260.959 172.968,417.582l0,0.001c0,326.152 -264.398,590.551 -590.551,590.551c-529.45,-0 -1251.21,-0 -1440.94,-0c-26.092,-0 -47.244,-21.152 -47.244,-47.244l0,-377.953c0,-26.092 21.152,-47.244 47.244,-47.244c216.317,-0 1115.62,-0 1440.94,-0c31.325,-0 61.367,-12.444 83.517,-34.594c22.15,-22.15 34.593,-52.191 34.593,-83.516l0,-0.001Zm2787.4,-1299.21c12.53,0 24.547,4.978 33.407,13.838c8.86,8.86 13.837,20.876 13.837,33.406l0,377.953c0,12.53 -4.977,24.547 -13.837,33.407c-8.86,8.86 -20.877,13.837 -33.407,13.837c-234.727,0 -1270.99,0 -1440.94,0c-13.046,0 -23.622,10.576 -23.622,23.622c0,45.26 0,143.717 0,188.976c0,13.047 10.576,23.622 23.622,23.622c169.959,0 1206.22,0 1440.94,0c12.53,0 24.547,4.978 33.407,13.838c8.86,8.86 13.837,20.877 13.837,33.407c0,90.519 0,287.433 0,377.952c0,12.53 -4.977,24.547 -13.837,33.407c-8.86,8.86 -20.877,13.837 -33.407,13.837c-234.727,0 -1270.99,0 -1440.94,0c-13.046,0 -23.622,10.576 -23.622,23.622c0,45.26 0,143.717 0,188.977c0,13.046 10.576,23.622 23.622,23.622c169.959,-0 1206.22,-0 1440.94,-0c12.53,-0 24.547,4.977 33.407,13.837c8.86,8.86 13.837,20.877 13.837,33.407c0,90.52 0,287.433 0,377.953c0,12.53 -4.977,24.546 -13.837,33.406c-8.86,8.86 -20.877,13.838 -33.407,13.838c-270.415,-0 -1619.35,-0 -1889.76,-0c-12.53,-0 -24.546,-4.978 -33.406,-13.838c-8.86,-8.86 -13.838,-20.876 -13.838,-33.406c0,-261.919 0,-1533.36 0,-1795.28c0,-12.53 4.978,-24.546 13.838,-33.406c8.86,-8.86 20.876,-13.838 33.406,-13.838c270.416,0 1619.35,0 1889.76,0Zm-5763.78,377.953c312.897,-0 566.93,254.032 566.93,566.929c-0,312.897 -254.033,566.929 -566.93,566.929c-312.896,0 -566.929,-254.032 -566.929,-566.929c0,-312.897 254.033,-566.929 566.929,-566.929Zm-6566.93,-0c312.897,-0 566.929,254.032 566.929,566.929c0,312.897 -254.032,566.929 -566.929,566.929c-312.896,0 -566.929,-254.032 -566.929,-566.929c0,-312.897 254.033,-566.929 566.929,-566.929Zm7370.08,-1370.08c0,-26.092 -21.152,-47.244 -47.244,-47.244c-235.075,0 -1276.74,0 -1511.81,0c-26.092,0 -47.244,21.152 -47.244,47.244l-0,377.953c-0,26.092 21.152,47.244 47.244,47.244c235.075,-0 1276.74,-0 1511.81,-0c26.092,-0 47.244,-21.152 47.244,-47.244l0,-377.953Z"/></svg>