<?xml version="1.0" encoding="UTF-8" standalone="no"?>
<!DOCTYPE svg PUBLIC "-//W3C//DTD SVG 1.1//EN" "http://www.w3.org/Graphics/SVG/1.1/DTD/svg11.dtd">
<svg width="100%" height="100%" viewBox="0 0 1418 1418" version="1.1" xmlns="http://www.w3.org/2000/svg" xmlns:xlink="http://www.w3.org/1999/xlink" xml:space="preserve" xmlns:serif="http://www.serif.com/" style="fill-rule:evenodd;clip-rule:evenodd;stroke-linejoin:round;stroke-miterlimit:2;">
    <g transform="matrix(1,0,0,1,-1606.3,-1889.76)">
        <path d="M2551.18,2267.72C2603.37,2267.72 2645.67,2310.02 2645.67,2362.2L2645.67,2362.2L2740.16,2362.2L2740.16,2362.2C2740.16,2257.84 2655.55,2173.23 2551.18,2173.23L2551.18,2173.23C2446.81,2173.23 2362.2,2257.84 2362.2,2362.2L2362.2,2456.69L2362.2,2456.69C2257.84,2456.69 2173.23,2541.3 2173.23,2645.67L2173.23,2881.89C2173.23,2907.98 2152.08,2929.13 2125.98,2929.13L2125.98,2929.13C2099.89,2929.13 2078.74,2907.98 2078.74,2881.89L2078.74,2834.64C2078.74,2730.28 1994.13,2645.67 1889.76,2645.67L1889.76,2645.67L1889.76,2740.16L1889.76,2740.16C1941.95,2740.16 1984.25,2782.46 1984.25,2834.64L1984.25,2881.89C1984.25,2919.48 1999.18,2955.53 2025.76,2982.11C2052.34,3008.69 2088.39,3023.62 2125.98,3023.62L2125.99,3023.62C2204.26,3023.62 2267.72,2960.17 2267.72,2881.89L2267.72,2645.67C2267.72,2593.49 2310.02,2551.18 2362.2,2551.18L2362.2,2551.18L2362.2,2598.43C2362.2,2676.7 2425.66,2740.16 2503.94,2740.16L2503.94,2740.16C2541.53,2740.16 2577.58,2725.22 2604.16,2698.64C2630.74,2672.07 2645.67,2636.01 2645.67,2598.43L2645.67,2598.43C2645.67,2560.84 2630.74,2524.78 2604.16,2498.2C2577.58,2471.62 2541.53,2456.69 2503.94,2456.69L2456.69,2456.69L2456.69,2362.2C2456.69,2310.02 2499,2267.72 2551.18,2267.72L2551.18,2267.72ZM2456.69,2551.18L2456.69,2598.43C2456.69,2610.95 2461.67,2622.97 2470.53,2631.83C2479.39,2640.69 2491.41,2645.67 2503.94,2645.67L2503.94,2645.67C2516.47,2645.67 2528.48,2640.69 2537.34,2631.83C2546.2,2622.97 2551.18,2610.95 2551.18,2598.43L2551.18,2598.43C2551.18,2585.89 2546.2,2573.88 2537.34,2565.02C2528.48,2556.16 2516.47,2551.18 2503.94,2551.18L2456.69,2551.18Z"/>
    </g>
    <g transform="matrix(1,0,0,1,-755.906,-472.441)">
        <path d="M2078.74,566.929L850.394,566.929L850.394,1795.28L2078.74,1795.28L2078.74,566.929ZM1984.25,661.417L944.882,661.417L944.882,1700.79L1984.25,1700.79L1984.25,661.417Z"/>
    </g>
</svg>
